# xmcd
#
# Track frame offsets:
#	183
#	13645
#	26323
#	37723
#	50760
#	62248
#	77968
#	87868
#	98820
#	113490
#	123165
#	134220
#	147215
#	159383
#	172738
#	185740
#	199715
#	211148
#	224195
#	244478
#
# Disc length: 3453 seconds
#
# Revision: 0
# Processed by: cddbd v1.4PL0 Copyright (c) Steve Scherf et al.
# Submitted via: dBpowerAMP V4.0
#
DISCID=1b0d7b14
DTITLE=Bo Diddley - Hey! Bo Diddley
DYEAR=1995
DGENRE=R&B
TTITLE0=I'm a man
TTITLE1=Bo Diddley
TTITLE2=Diddley Daddy
TTITLE3=Pretty Thing
TTITLE4=Bring It To jerome
TTITLE5=Cops And Robbers
TTITLE6=Hey! Bo Diddley
TTITLE7=Mona ( I Need You Baby)
TTITLE8=Say man
TTITLE9=Crackin' Up
TTITLE10=I'm Sorry
TTITLE11=Mumblin' Guitar
TTITLE12=She's Alright
TTITLE13=Say Man Back Again
TTITLE14=Road Runner
TTITLE15=Ride On Josephine
TTITLE16=Sixteen Tons
TTITLE17=Pills (Love's Labours Lost)
TTITLE18=I can Tell
TTITLE19=You Can't Judge A Book By The Cover
EXTD=Compilation by Charly Holdings 1994
EXTT0=
EXTT1=
EXTT2=
EXTT3=
EXTT4=
EXTT5=
EXTT6=
EXTT7=
EXTT8=
EXTT9=
EXTT10=
EXTT11=
EXTT12=
EXTT13=
EXTT14=
EXTT15=
EXTT16=
EXTT17=
EXTT18=
EXTT19=
PLAYORDER=
